# Blender 4.0.2
# www.blender.org
mtllib run game.mtl
o Plane.001
v -6.000000 0.000000 -3.000000
v -4.000000 0.000000 -3.000000
v -6.000000 0.000000 -5.000000
v -4.000000 0.000000 -5.000000
v -6.000000 -0.200000 -3.000000
v -4.000000 -0.200000 -3.000000
v -6.000000 -0.200000 -5.000000
v -4.000000 -0.200000 -5.000000
v -2.000000 0.000000 -3.000000
v -2.000000 0.000000 -5.000000
v -2.000000 -0.200000 -3.000000
v -2.000000 -0.200000 -5.000000
v 0.000000 0.000000 -3.000000
v 0.000000 0.000000 -5.000000
v 0.000000 -0.200000 -3.000000
v 0.000000 -0.200000 -5.000000
v -4.000000 0.000000 -5.270216
v -4.000000 -0.200000 -5.270216
v -4.000000 -0.200000 -2.729784
v -4.000000 0.000000 -2.729784
v -2.000000 0.000000 -5.270216
v -2.000000 -0.200000 -5.270216
v -2.000000 -0.200000 -2.729784
v -2.000000 0.000000 -2.729784
v -2.000000 1.384025 -3.000000
v -4.000000 1.384025 -3.000000
v -4.000000 1.384025 -5.000000
v -2.000000 1.384025 -5.000000
v -2.000000 1.384025 -2.729784
v -4.000000 1.384025 -2.729784
v -4.000000 1.384025 -5.270216
v -2.000000 1.384025 -5.270216
v -3.333333 0.000000 -3.000000
v -3.333333 0.000000 -5.000000
v -3.333333 0.700000 -4.333333
v -2.666667 0.000000 -2.729784
v -3.333333 0.000000 -2.729784
v -3.333333 -0.200000 -2.729784
v -2.666667 -0.200000 -2.729784
v -2.666667 -0.200000 -5.270216
v -3.333333 -0.200000 -5.270216
v -3.333333 0.000000 -5.270216
v -2.666667 0.000000 -5.270216
v -2.666667 1.384025 -3.000000
v -3.333333 1.384025 -3.000000
v -3.333333 1.384025 -5.000000
v -2.666667 1.384025 -5.000000
v -2.666667 1.384025 -2.729784
v -3.333333 1.384025 -2.729784
v -3.333333 1.384025 -5.270216
v -2.666667 1.384025 -5.270216
v -6.000000 0.000000 -4.333333
v -6.000000 0.000000 -3.666667
v -4.000000 0.000000 -3.666667
v -4.000000 0.000000 -4.333333
v -2.000000 0.000000 -3.666667
v -2.000000 0.000000 -4.333333
v 0.000000 0.000000 -3.666667
v 0.000000 0.000000 -4.333333
v -3.333333 0.000000 -3.666667
v -3.333333 0.000000 -4.333333
v -2.666667 0.000000 -3.666667
v -2.666667 0.000000 -4.333333
v -4.000000 0.692013 -2.729784
v -4.000000 0.692013 -3.000000
v -2.000000 0.692013 -2.729784
v -2.000000 0.692013 -3.000000
v -2.666667 0.692013 -3.000000
v -3.333333 0.692013 -3.000000
v -3.333333 0.692013 -2.729784
v -2.666667 0.692013 -2.729784
v -2.000000 0.692013 -5.000000
v -4.000000 0.692013 -5.000000
v -2.000000 0.692013 -5.270216
v -4.000000 0.692013 -5.270216
v -2.666667 0.692013 -5.270216
v -3.333333 0.692013 -5.270216
v -3.333333 0.692013 -5.000000
v -2.666667 0.692013 -5.000000
v -2.666667 0.700000 -4.333333
v -3.333333 0.700000 -3.666667
v -2.666667 0.700000 -3.666667
v -5.000000 0.000000 -3.000000
v -5.000000 0.000000 -5.000000
v -5.000000 -0.200000 -3.000000
v -5.000000 -0.200000 -5.000000
v -5.000000 0.000000 -3.666667
v -5.000000 0.000000 -4.333333
v -6.000000 0.400000 -4.333333
v -6.000000 0.400000 -3.666667
v -5.500000 0.000000 -5.000000
v -5.500000 -0.200000 -5.000000
v -5.500000 0.000000 -3.666667
v -5.500000 0.000000 -4.333333
v -5.500000 0.000000 -3.000000
v -5.500000 -0.200000 -3.000000
v -5.500000 0.400000 -3.666667
v -5.500000 0.400000 -4.333333
v -6.000000 0.800000 -4.333333
v -6.000000 0.800000 -3.666667
v -2.000000 3.384025 -5.270216
v -2.666667 3.384025 -5.270216
v -4.000000 3.384025 -2.729784
v -3.333333 3.384025 -2.729784
v -3.333333 3.384025 -5.270216
v -2.666667 3.384025 -2.729784
v -3.333333 3.384025 -5.000000
v -2.666667 3.384025 -3.000000
v -2.000000 3.384025 -5.000000
v -2.666667 3.384025 -5.000000
v -2.000000 3.384025 -2.729784
v -2.000000 3.384025 -3.000000
v -4.000000 3.384025 -3.000000
v -3.333333 3.384025 -3.000000
v -4.000000 3.384025 -5.270216
v -4.000000 3.384025 -5.000000
v -10.000000 0.000000 -3.000000
v -10.000000 0.000000 -5.000000
v -10.000000 -0.200000 -3.000000
v -10.000000 -0.200000 -5.000000
v -10.000000 0.000000 -4.333333
v -10.000000 0.000000 -3.666667
v -8.000000 0.000000 -5.000000
v -8.000000 -0.200000 -5.000000
v -8.000000 0.000000 -3.666667
v -8.000000 0.000000 -4.333333
v -8.000000 0.000000 -3.000000
v -8.000000 -0.200000 -3.000000
v -7.000000 0.000000 -5.000000
v -7.000000 0.000000 -3.666667
v -7.000000 0.000000 -3.000000
v -7.000000 -0.200000 -3.000000
v -7.000000 -0.200000 -5.000000
v -7.000000 0.000000 -4.333333
v -9.000000 -0.200000 -5.000000
v -9.000000 0.000000 -4.333333
v -9.000000 0.000000 -5.000000
v -9.000000 0.000000 -3.666667
v -9.000000 0.000000 -3.000000
v -9.000000 -0.200000 -3.000000
v -9.000000 1.000000 -5.000000
v -8.000000 1.000000 -5.000000
v -7.000000 1.000000 -4.333333
v -8.000000 1.000000 -4.333333
v -7.000000 1.000000 -5.000000
v -9.000000 1.000000 -4.333333
v -8.000000 0.400000 -3.666667
v -8.000000 0.400000 -3.000000
v -7.000000 0.400000 -3.666667
v -7.000000 0.400000 -3.000000
v -2.666667 3.684025 -5.000000
v -2.666667 3.684025 -5.270216
v -2.000000 3.684025 -3.000000
v -2.666667 3.684025 -3.000000
v -4.000000 3.684025 -5.270216
v -3.333333 3.684025 -5.270216
v -3.333333 3.684025 -5.000000
v -2.000000 3.684025 -2.729784
v -2.666667 3.684025 -2.729784
v -3.333333 3.684025 -3.000000
v -3.333333 3.684025 -2.729784
v -4.000000 3.684025 -2.729784
v -4.000000 3.684025 -3.000000
v -2.000000 3.684025 -5.000000
v -2.000000 3.684025 -5.270216
v -4.000000 3.684025 -5.000000
v -6.300000 0.800000 -4.333333
v -6.300000 0.800000 -3.666667
v -10.000000 2.000000 -4.333333
v -10.000000 2.000000 -5.000000
vn -0.0000 1.0000 -0.0000
vn -0.0000 -0.0000 -1.0000
vn -0.0000 -0.0000 1.0000
vn -1.0000 -0.0000 -0.0000
vn 1.0000 -0.0000 -0.0000
vn -0.0000 0.6980 -0.7161
vn -0.0000 0.9999 -0.0120
vn 0.7222 0.6917 -0.0041
vn 0.7201 0.6938 0.0083
vn 0.6247 0.7809 -0.0000
vn -0.0000 -1.0000 -0.0000
vn -0.8000 -0.6000 -0.0000
vn 0.7222 0.6917 0.0041
vn 0.7071 0.7071 -0.0000
vt 0.500000 0.666667
vt 1.000000 0.666667
vt 1.000000 1.000000
vt 0.500000 1.000000
vt 0.250000 0.000000
vt 0.000000 0.000000
vt 1.000000 0.333333
vt 1.000000 0.333333
vt 1.000000 0.000000
vt 1.000000 0.333333
vt 1.000000 0.666667
vt 1.000000 0.666667
vt 0.500000 0.000000
vt 0.500000 0.333333
vt 0.250000 0.333333
vt 0.250000 1.000000
vt 0.250000 0.666667
vt 0.000000 0.666667
vt 0.000000 0.333333
vt 0.000000 1.000000
s 0
f 88/1/1 55/2/1 4/3/1 84/4/1
f 84/4/2 4/3/2 8/3/2 86/4/2
f 95/5/3 1/6/3 5/6/3 96/5/3
f 79/3/3 72/3/3 28/3/3 47/3/3
f 8/3/4 4/3/4 17/3/4 18/3/4
f 62/7/2 82/7/2 56/8/2
f 9/9/3 11/9/3 15/9/3 13/9/3
f 12/3/2 10/3/2 14/3/2 16/3/2
f 56/8/1 9/9/1 13/9/1 58/8/1
f 36/9/3 39/9/3 23/9/3 24/9/3
f 40/3/2 43/3/2 21/3/2 22/3/2
f 11/9/5 9/9/5 24/9/5 23/9/5
f 2/9/4 6/9/4 19/9/4 20/9/4
f 65/9/4 64/9/4 30/9/4 26/9/4
f 10/3/5 12/3/5 22/3/5 21/3/5
f 28/3/5 32/3/5 101/3/5 109/3/5
f 45/9/2 26/9/2 113/9/2 114/9/2
f 72/3/5 74/3/5 32/3/5 28/3/5
f 75/3/4 73/3/4 27/3/4 31/3/4
f 71/9/3 66/9/3 29/9/3 48/9/3
f 66/9/5 67/9/5 25/9/5 29/9/5
f 69/9/2 65/9/2 26/9/2 45/9/2
f 77/3/2 75/3/2 31/3/2 50/3/2
f 74/3/2 76/3/2 51/3/2 32/3/2
f 76/3/2 77/3/2 50/3/2 51/3/2
f 67/9/2 68/9/2 44/9/2 25/9/2
f 82/7/6 81/10/6 45/9/6
f 64/9/3 70/9/3 49/9/3 30/9/3
f 70/9/3 71/9/3 48/9/3 49/9/3
f 115/3/4 116/3/4 166/3/4 155/3/4
f 44/9/1 45/9/1 49/9/1 48/9/1
f 50/3/2 31/3/2 115/3/2 105/3/2
f 46/3/1 47/3/1 51/3/1 50/3/1
f 18/3/2 17/3/2 42/3/2 41/3/2
f 41/3/2 42/3/2 43/3/2 40/3/2
f 20/9/3 19/9/3 38/9/3 37/9/3
f 37/9/3 38/9/3 39/9/3 36/9/3
f 54/8/1 2/9/1 33/9/1 60/10/1
f 62/7/2 60/10/2 81/10/2 82/7/2
f 73/3/3 78/3/3 46/3/3 27/3/3
f 78/3/3 79/3/3 47/3/3 46/3/3
f 61/11/3 63/12/3 80/12/3 35/11/3
f 61/11/1 60/10/1 62/7/1 63/12/1
f 4/3/1 55/2/1 61/11/1 34/3/1
f 55/2/1 54/8/1 60/10/1 61/11/1
f 10/3/1 57/2/1 59/2/1 14/3/1
f 57/2/1 56/8/1 58/8/1 59/2/1
f 63/12/1 62/7/1 56/8/1 57/2/1
f 83/13/1 2/9/1 54/8/1 87/14/1
f 87/14/1 54/8/1 55/2/1 88/1/1
f 37/9/3 36/9/3 71/9/3 70/9/3
f 20/9/3 37/9/3 70/9/3 64/9/3
f 44/9/2 68/9/2 45/9/2
f 9/9/2 68/9/2 67/9/2
f 33/9/2 2/9/2 65/9/2 69/9/2
f 24/9/5 9/9/5 67/9/5 66/9/5
f 36/9/3 24/9/3 66/9/3 71/9/3
f 2/9/4 20/9/4 64/9/4 65/9/4
f 35/11/7 80/12/7 79/3/7 78/3/7
f 4/3/3 34/3/3 78/3/3 73/3/3
f 43/3/2 42/3/2 77/3/2 76/3/2
f 21/3/2 43/3/2 76/3/2 74/3/2
f 42/3/2 17/3/2 75/3/2 77/3/2
f 17/3/4 4/3/4 73/3/4 75/3/4
f 10/3/5 21/3/5 74/3/5 72/3/5
f 10/3/3 72/3/3 79/3/3
f 34/3/4 61/11/4 35/11/4 78/3/4
f 80/12/3 63/12/3 57/2/3
f 79/3/8 80/12/8 57/2/8 10/3/8
f 68/9/9 82/7/9 45/9/9
f 33/9/4 69/9/4 81/10/4 60/10/4
f 52/6/4 53/6/4 90/6/4 89/6/4
f 95/5/1 83/13/1 87/14/1 93/15/1
f 2/9/3 83/13/3 85/13/3 6/9/3
f 91/16/2 84/4/2 86/4/2 92/16/2
f 94/17/1 88/1/1 84/4/1 91/16/1
f 97/15/10 98/17/10 99/18/10 100/19/10
f 94/17/2 52/18/2 89/18/2 98/17/2
f 93/15/3 87/14/3 97/15/3
f 53/19/3 93/15/3 97/15/3 90/19/3
f 88/1/2 94/17/2 98/17/2
f 98/17/2 89/18/2 99/18/2
f 52/18/1 94/17/1 91/16/1 3/20/1
f 3/20/2 91/16/2 92/16/2 7/20/2
f 1/6/1 95/5/1 93/15/1 53/19/1
f 83/13/3 95/5/3 96/5/3 85/13/3
f 100/19/1 99/18/1 167/18/1 168/19/1
f 90/19/3 97/15/3 100/19/3
f 25/9/2 44/9/2 108/9/2 112/9/2
f 30/9/3 49/9/3 104/9/3 103/9/3
f 113/9/4 103/9/4 162/9/4 163/9/4
f 44/9/4 48/9/4 106/9/4 108/9/4
f 27/3/3 46/3/3 107/3/3 116/3/3
f 31/3/4 27/3/4 116/3/4 115/3/4
f 48/9/3 29/9/3 111/9/3 106/9/3
f 103/9/3 104/9/3 161/9/3 162/9/3
f 32/3/2 51/3/2 102/3/2 101/3/2
f 29/9/5 25/9/5 112/9/5 111/9/5
f 51/3/4 47/3/4 110/3/4 102/3/4
f 47/3/3 28/3/3 109/3/3 110/3/3
f 46/3/5 50/3/5 105/3/5 107/3/5
f 26/9/4 30/9/4 103/9/4 113/9/4
f 49/9/5 45/9/5 114/9/5 104/9/5
f 111/9/5 112/9/5 153/9/5 158/9/5
f 137/20/2 135/20/2 120/20/2 118/20/2
f 138/6/1 136/6/1 121/6/1 122/6/1
f 139/6/1 138/19/1 122/19/1 117/6/1
f 140/6/3 139/6/3 117/6/3 119/6/3
f 136/18/3 146/18/3 169/18/3 121/18/3
f 134/18/5 129/20/5 145/20/5 143/18/5
f 132/6/3 131/6/3 127/6/3 128/6/3
f 130/6/2 125/6/2 147/6/2 149/6/2
f 130/6/1 134/6/1 126/6/1 125/6/1
f 129/20/2 133/20/2 124/20/2 123/20/2
f 3/20/2 7/20/2 133/20/2 129/20/2
f 53/6/1 52/6/1 134/6/1 130/6/1
f 1/6/1 53/19/1 130/19/1 131/6/1
f 5/6/3 1/6/3 131/6/3 132/6/3
f 52/18/1 3/20/1 129/20/1 134/18/1
f 136/6/3 126/6/3 144/6/3 146/6/3
f 128/6/3 127/6/3 139/6/3 140/6/3
f 127/6/1 125/19/1 138/19/1 139/6/1
f 125/6/1 126/6/1 136/6/1 138/6/1
f 123/20/2 124/20/2 135/20/2 137/20/2
f 143/18/1 145/20/1 142/20/1 144/18/1
f 144/18/1 142/20/1 141/20/1 146/18/1
f 169/18/4 170/20/4 118/20/4 121/18/4
f 123/20/2 137/20/2 141/20/2 142/20/2
f 129/20/2 123/20/2 142/20/2 145/20/2
f 126/6/3 134/6/3 143/6/3 144/6/3
f 150/6/1 149/19/1 147/19/1 148/6/1
f 125/19/4 127/6/4 148/6/4 147/19/4
f 131/6/5 130/19/5 149/19/5 150/6/5
f 127/6/3 131/6/3 150/6/3 148/6/3
f 141/20/2 137/20/2 118/20/2 170/20/2
f 166/3/1 157/3/1 156/3/1 155/3/1
f 158/9/1 153/9/1 154/9/1 159/9/1
f 151/3/1 164/3/1 165/3/1 152/3/1
f 163/9/1 162/9/1 161/9/1 160/9/1
f 107/3/5 105/3/5 156/3/5 157/3/5
f 102/3/4 110/3/4 151/3/4 152/3/4
f 106/9/3 111/9/3 158/9/3 159/9/3
f 164/3/1 151/3/1 154/9/1 153/9/1
f 109/3/5 101/3/5 165/3/5 164/3/5
f 108/9/4 106/9/4 159/9/4 154/9/4
f 104/9/5 114/9/5 160/9/5 161/9/5
f 109/3/5 164/3/5 153/9/5 112/9/5
f 101/3/2 102/3/2 152/3/2 165/3/2
f 105/3/2 115/3/2 155/3/2 156/3/2
f 157/3/1 166/3/1 163/9/1 160/9/1
f 107/3/5 157/3/5 160/9/5 114/9/5
f 166/3/4 116/3/4 113/9/4 163/9/4
f 116/3/11 107/3/11 114/9/11 113/9/11
f 151/3/4 110/3/4 108/9/4 154/9/4
f 110/3/11 109/3/11 112/9/11 108/9/11
f 87/14/10 88/1/10 98/17/10 97/15/10
f 90/19/3 100/19/3 168/19/3
f 99/18/2 89/18/2 167/18/2
f 89/6/12 90/6/12 168/6/12 167/6/12
f 82/7/13 68/9/13 9/9/13 56/8/13
f 81/10/4 69/9/4 45/9/4
f 146/18/14 141/20/14 170/20/14 169/18/14
